<svg width="61" height="58" viewBox="0 0 61 58" fill="none" xmlns="http://www.w3.org/2000/svg">
<g clip-path="url(#clip0_131_64)">
<path d="M46.7031 0H14.2969C6.40093 0 0 6.08613 0 13.5938V44.4062C0 51.9139 6.40093 58 14.2969 58H46.7031C54.5991 58 61 51.9139 61 44.4062V13.5938C61 6.08613 54.5991 0 46.7031 0Z" fill="#242938"/>
<mask id="mask0_131_64" style="mask-type:luminance" maskUnits="userSpaceOnUse" x="14" y="6" width="33" height="46">
<path d="M46.3123 6.34375H14.5352V51.6562H46.3123V6.34375Z" fill="white"/>
</mask>
<g mask="url(#mask0_131_64)">
<path d="M22.4811 51.6562C26.8655 51.6562 30.4238 48.273 30.4238 44.1042V36.552H22.4811C18.0967 36.552 14.5383 39.9355 14.5383 44.1042C14.5383 48.273 18.0967 51.6562 22.4811 51.6562Z" fill="#0ACF83"/>
<path d="M14.5383 29C14.5383 24.8313 18.0967 21.4479 22.4811 21.4479H30.4238V36.552H22.4811C18.0967 36.552 14.5383 33.1688 14.5383 29Z" fill="#A259FF"/>
<path d="M14.5382 13.8958C14.5382 9.72708 18.0966 6.34375 22.4809 6.34375H30.4236V21.4479H22.4809C18.0966 21.4479 14.5382 18.0646 14.5382 13.8958Z" fill="#F24E1E"/>
<path d="M30.4238 6.34375H38.3665C42.7508 6.34375 46.3093 9.72708 46.3093 13.8958C46.3093 18.0646 42.7508 21.4479 38.3665 21.4479H30.4238V6.34375Z" fill="#FF7262"/>
<path d="M46.3093 29C46.3093 33.1688 42.7508 36.552 38.3665 36.552C33.9821 36.552 30.4238 33.1688 30.4238 29C30.4238 24.8313 33.9821 21.4479 38.3665 21.4479C42.7508 21.4479 46.3093 24.8313 46.3093 29Z" fill="#1ABCFE"/>
</g>
</g>
<defs>
<clipPath id="clip0_131_64">
<rect width="61" height="58" fill="white"/>
</clipPath>
</defs>
</svg>
