<svg width="35" height="50" viewBox="0 0 35 50" fill="none" xmlns="http://www.w3.org/2000/svg">
<path d="M0.0043861 5.43404C-0.0321102 5.70776 0.160198 5.95924 0.433918 5.99574L4.89444 6.59048C5.16816 6.62697 5.41964 6.43466 5.45614 6.16094C5.49264 5.88722 5.30033 5.63575 5.02661 5.59925L1.0617 5.07059L1.59035 1.10568C1.62685 0.831959 1.43454 0.580479 1.16082 0.543983C0.887103 0.507487 0.635623 0.699795 0.599127 0.973515L0.0043861 5.43404ZM0.5 5.50012L0.803725 5.8973C9.0235 -0.3884 19.8508 2.45467 26.7379 10.8791C33.6038 19.2775 36.4709 33.1877 28.5542 48.7738L29 49.0002L29.4458 49.2266C37.5291 33.3125 34.6462 18.9726 27.5121 10.2461C20.3992 1.54552 8.9765 -1.61133 0.196275 5.10294L0.5 5.50012Z" fill="black"/>
</svg>
