<svg width="57" height="60" viewBox="0 0 57 60" fill="none" xmlns="http://www.w3.org/2000/svg">
<path d="M54.8089 28.5008C53.4053 26.2192 51.4027 24.3245 48.9977 23.003C47.1616 21.9867 45.263 21.3413 43.1193 21.062V13.7514C44.1589 13.3412 45.0453 12.6433 45.664 11.748C46.2827 10.8528 46.6051 9.80133 46.5896 8.72969C46.5934 8.00599 46.447 7.28872 46.1589 6.61908C45.8707 5.94943 45.4464 5.34061 44.9105 4.82761C44.3745 4.3146 43.7374 3.90751 43.0357 3.62973C42.334 3.35196 41.5816 3.20896 40.8217 3.20897C39.2825 3.20896 37.8061 3.79002 36.716 4.82484C35.6258 5.85965 35.0108 7.26382 35.0057 8.72969C35.0057 10.9728 36.2555 12.8862 38.404 13.7514V21.0208C36.6242 21.2661 34.8974 21.7824 33.2898 22.5498L12.7416 7.73175C12.8858 7.21446 13.0108 6.67887 13.0108 6.11582C13.0108 2.73747 10.1364 0 6.58916 0C3.0419 0 0.172363 2.73747 0.172363 6.11582C0.172363 9.49416 3.04671 12.2316 6.59397 12.2316C7.80523 12.2316 8.92517 11.8929 9.89129 11.339L11.2371 12.3095L29.6704 24.9668C28.6947 25.8183 27.7862 26.7887 27.0604 27.8782C25.5896 30.0984 24.6908 32.5383 24.6908 35.2026V35.7519C24.6973 37.5587 25.039 39.3502 25.7002 41.0437C26.2577 42.4903 27.0749 43.8087 28.0891 44.9989L21.9655 50.8446C20.1534 50.2037 18.1202 50.6294 16.7503 51.9341C15.8178 52.8176 15.2939 54.0215 15.2987 55.2758C15.3035 56.5301 15.8178 57.7249 16.7551 58.6175C17.6924 59.5102 18.9469 60.0046 20.2639 60.0046C21.5809 60.0046 22.8451 59.5102 23.7727 58.6175C24.7004 57.7249 25.2291 56.5301 25.2243 55.2758C25.2239 54.7943 25.1461 54.3158 24.9936 53.8567L31.3191 47.8325C32.1843 48.4047 33.1216 48.8853 34.1309 49.2973C36.2055 50.1639 38.4458 50.6127 40.7112 50.6157H41.1438C43.797 50.6157 46.3012 50.0206 48.6517 48.8075C51.0676 47.5737 53.0975 45.7526 54.5349 43.5294C56.0105 41.2863 56.8181 38.8006 56.8181 36.0677V35.9304C56.8181 33.2433 56.1644 30.7668 54.7993 28.4962L54.8089 28.5008ZM47.0847 41.1444C45.3687 42.9618 43.3932 44.0833 41.163 44.0833H40.74C39.4663 44.0833 38.2165 43.7491 37.0005 43.1357C35.6671 42.4754 34.5373 41.4956 33.7224 40.293C32.838 39.1028 32.3573 37.8027 32.3573 36.4248V36.0128C32.3573 34.6578 32.6313 33.3715 33.3186 32.1584C34.054 30.7851 35.049 29.8009 36.3708 28.9815C37.6926 28.1621 39.0529 27.7684 40.6006 27.7684H40.7448C42.1387 27.7684 43.4701 28.0293 44.7199 28.6381C45.9859 29.2723 47.0612 30.2034 47.8441 31.3436C48.6193 32.4869 49.0986 33.789 49.2429 35.1431L49.2765 35.9991C49.2765 37.8622 48.5267 39.588 47.0318 41.1536L47.0847 41.1444Z" fill="#F8761F"/>
</svg>
