<svg width="33" height="23" viewBox="0 0 33 23" fill="none" xmlns="http://www.w3.org/2000/svg">
<path d="M16.3861 0.098143C7.33613 0.098143 0 6.91816 0 15.3334V22.6297H3.02076V21.9025C3.02076 18.4893 5.99509 15.7226 9.66589 15.7226C13.3367 15.7226 16.311 18.488 16.311 21.9025V22.6297H19.3318V21.9025C19.3318 16.9389 15.0028 12.9162 9.66589 12.9162C7.66897 12.9117 5.71961 13.4873 4.08595 14.5639C4.92843 13.0138 6.21254 11.7127 7.79581 10.8051C9.37907 9.89754 11.1996 9.41892 13.0554 9.42237C18.5957 9.42237 23.0886 13.6012 23.0886 18.7517V22.6297H26.1094V18.7504C26.1094 12.0482 20.2645 6.61217 13.054 6.61217C9.94348 6.60623 6.93283 7.64134 4.56392 9.53119C5.70822 7.52508 7.41306 5.84858 9.49584 4.68125C11.5786 3.51393 13.9609 2.89975 16.3875 2.9045C23.7701 2.9045 29.7542 8.46857 29.7542 15.3321V22.6297H32.775V15.3321C32.7736 6.91688 25.4375 0.098143 16.3861 0.098143Z" fill="black"/>
</svg>
