<svg width="36" height="32" viewBox="0 0 36 32" fill="none" xmlns="http://www.w3.org/2000/svg">
<path d="M27.5151 16.6763C23.2917 16.6763 19.868 19.9947 19.868 24.0882C19.868 28.1816 23.2917 31.5 27.5151 31.5C31.7386 31.5 35.1622 28.1816 35.1622 24.0882C35.1622 19.9947 31.7386 16.6763 27.5151 16.6763ZM7.64715 16.6769C3.42378 16.6769 0 19.9947 0 24.0882C0 28.1816 3.42378 31.5 7.64715 31.5C11.8707 31.5 15.2946 28.1816 15.2946 24.0882C15.2946 19.9947 11.8707 16.6769 7.64715 16.6769ZM25.2281 7.4115C25.2281 11.5051 21.8045 14.8238 17.5812 14.8238C13.3576 14.8238 9.93397 11.5051 9.93397 7.4115C9.93397 3.31867 13.3576 0 17.5812 0C21.8045 0 25.2281 3.31867 25.2281 7.4115Z" fill="#F06A6A"/>
</svg>
