<svg width="21" height="30" viewBox="0 0 21 30" fill="none" xmlns="http://www.w3.org/2000/svg">
<path d="M0.505406 4.8694C0.464909 5.14256 0.653517 5.39682 0.926674 5.43732L5.37802 6.09726C5.65118 6.13775 5.90544 5.94915 5.94594 5.67599C5.98644 5.40283 5.79783 5.14857 5.52467 5.10807L1.56792 4.52146L2.15453 0.564707C2.19503 0.29155 2.00642 0.0372839 1.73326 -0.00321317C1.46011 -0.0437102 1.20584 0.144898 1.16534 0.418055L0.505406 4.8694ZM1 4.94273L1.29788 5.34431C5.87029 1.95262 11.9225 3.46677 15.7976 8.06469C19.6494 12.6351 21.2789 20.2259 16.806 28.7681L17.2489 29L17.6918 29.2319C22.3411 20.3532 20.6923 12.3207 16.5622 7.42025C12.4554 2.54738 5.82204 0.743332 0.702119 4.54115L1 4.94273Z" fill="black"/>
</svg>
