<svg width="79" height="55" viewBox="0 0 79 55" fill="none" xmlns="http://www.w3.org/2000/svg">
<path d="M39.4967 0.00312477C17.6828 0.00312477 0 16.65 0 37.1906V55H7.28117V53.225C7.28117 44.8937 14.4504 38.1406 23.2984 38.1406C32.1464 38.1406 39.3157 44.8906 39.3157 53.225V55H46.5968V53.225C46.5968 41.1094 36.1623 31.2906 23.2984 31.2906C18.4851 31.2795 13.7864 32.6845 9.84867 35.3125C11.8794 31.5287 14.9745 28.3529 18.7908 26.1376C22.6071 23.9223 26.9952 22.7541 31.4683 22.7625C44.8226 22.7625 55.6522 32.9625 55.6522 45.5344V55H62.9334V45.5312C62.9334 29.1719 48.845 15.9031 31.465 15.9031C23.9675 15.8886 16.7107 18.4152 11.0008 23.0281C13.7589 18.1314 17.8682 14.0393 22.8885 11.19C27.9088 8.34066 33.651 6.84152 39.5 6.85312C57.2948 6.85312 71.7188 20.4344 71.7188 37.1875V55H79V37.1875C78.9967 16.6469 61.3139 0.00312477 39.4967 0.00312477Z" fill="black"/>
</svg>
