<svg width="68" height="59" viewBox="0 0 68 59" fill="none" xmlns="http://www.w3.org/2000/svg">
<path d="M53.2113 31.1854C45.0436 31.1854 38.4226 37.3909 38.4226 45.046C38.4226 52.7008 45.0436 58.9063 53.2113 58.9063C61.379 58.9063 68 52.7008 68 45.046C68 37.3909 61.379 31.1854 53.2113 31.1854ZM14.7888 31.1866C6.62124 31.1866 0 37.3909 0 45.046C0 52.7008 6.62124 58.9063 14.7888 58.9063C22.9567 58.9063 29.5782 52.7008 29.5782 45.046C29.5782 37.3909 22.9567 31.1866 14.7888 31.1866ZM48.7885 13.8598C48.7885 21.5151 42.1675 27.7212 34.0002 27.7212C25.8322 27.7212 19.2113 21.5151 19.2113 13.8598C19.2113 6.20605 25.8322 0 34.0002 0C42.1675 0 48.7885 6.20605 48.7885 13.8598Z" fill="#F06A6A"/>
</svg>
