<svg width="27" height="30" viewBox="0 0 27 30" fill="none" xmlns="http://www.w3.org/2000/svg">
<path d="M26.0423 14.2493C25.3733 13.1086 24.4188 12.1613 23.2725 11.5006C22.3973 10.9925 21.4923 10.6698 20.4705 10.5302V6.87519C20.966 6.67007 21.3886 6.32115 21.6835 5.87356C21.9784 5.42597 22.132 4.90029 22.1247 4.36451C22.1265 4.00269 22.0567 3.64408 21.9193 3.30929C21.782 2.97449 21.5798 2.6701 21.3243 2.41362C21.0688 2.15713 20.7651 1.95361 20.4307 1.81473C20.0962 1.67585 19.7376 1.60436 19.3754 1.60436C18.6418 1.60436 17.938 1.89487 17.4184 2.41223C16.8988 2.9296 16.6057 3.63163 16.6032 4.36451C16.6032 5.48596 17.1989 6.44263 18.223 6.87519V10.5096C17.3747 10.6322 16.5516 10.8903 15.7853 11.274L5.99109 3.86558C6.05982 3.60696 6.11939 3.33918 6.11939 3.05767C6.11939 1.36863 4.74934 0 3.05855 0C1.36776 0 0 1.36863 0 3.05767C0 4.74672 1.37005 6.11535 3.06084 6.11535C3.63818 6.11535 4.172 5.94599 4.6325 5.66906L5.27399 6.15426L14.0602 12.4825C13.5951 12.9081 13.1621 13.3933 12.8161 13.9381C12.1151 15.0481 11.6866 16.2679 11.6866 17.5999V17.8746C11.6897 18.7779 11.8526 19.6736 12.1678 20.5203C12.4335 21.2435 12.823 21.9027 13.3064 22.4977L10.3876 25.4204C9.52389 25.0999 8.55477 25.3128 7.90182 25.9651C7.45736 26.4068 7.20764 27.0087 7.20993 27.6358C7.21222 28.2629 7.45736 28.8602 7.90412 29.3065C8.35087 29.7528 8.94883 30 9.57658 30C10.2043 30 10.8069 29.7528 11.249 29.3065C11.6912 28.8602 11.9432 28.2629 11.9409 27.6358C11.9408 27.3951 11.9037 27.1558 11.831 26.9263L14.846 23.9144C15.2584 24.2005 15.7051 24.4408 16.1863 24.6468C17.1751 25.08 18.2429 25.3044 19.3227 25.3059H19.5289C20.7936 25.3059 21.9872 25.0084 23.1075 24.4019C24.2591 23.785 25.2266 22.8746 25.9118 21.763C26.6151 20.6416 27 19.3988 27 18.0325V17.9638C27 16.6204 26.6884 15.3822 26.0378 14.247L26.0423 14.2493ZM22.3606 20.5706C21.5427 21.4792 20.6011 22.04 19.5381 22.04H19.3364C18.7293 22.04 18.1336 21.8729 17.554 21.5662C16.9184 21.2361 16.3799 20.7462 15.9915 20.1449C15.57 19.5499 15.3409 18.8999 15.3409 18.211V18.005C15.3409 17.3276 15.4714 16.6845 15.7991 16.078C16.1496 15.3914 16.6238 14.8993 17.2539 14.4896C17.8839 14.08 18.5323 13.8831 19.27 13.8831H19.3387C20.0031 13.8831 20.6378 14.0136 21.2334 14.318C21.8369 14.635 22.3494 15.1006 22.7226 15.6706C23.0921 16.2422 23.3206 16.8932 23.3893 17.5702L23.4053 17.9982C23.4053 18.9297 23.0479 19.7925 22.3354 20.5752L22.3606 20.5706Z" fill="#F8761F"/>
</svg>
